<svg width="19" height="16" viewBox="0 0 19 16" fill="none" xmlns="http://www.w3.org/2000/svg">
<path d="M8.7998 1.84752C9.69185 0.940524 10.9049 0.428125 12.1904 0.428125C14.8149 0.428125 16.9498 2.56333 16.9498 5.18812C16.9495 6.52069 16.5189 7.89552 15.6799 9.27312C15.0161 10.3631 14.0949 11.4598 12.9445 12.5334C10.9942 14.3535 9.0162 15.5063 8.99243 15.5201L8.99239 15.5201C8.93279 15.5547 8.86623 15.5719 8.7998 15.5719C8.73491 15.5719 8.66993 15.5554 8.61143 15.5225M8.7998 1.84752L8.68243 15.3903M8.7998 1.84752C7.90776 0.940494 6.69474 0.428125 5.40918 0.428125C2.78471 0.428125 0.649805 2.563 0.649805 5.1875C0.649805 6.7345 1.22788 8.33163 2.3521 9.93291L2.35211 9.93292C2.47411 10.1067 2.71384 10.1486 2.88756 10.0266L8.7998 1.84752ZM8.61143 15.5225C8.61004 15.5217 8.60866 15.521 8.60728 15.5202M8.61143 15.5225C8.61311 15.5234 8.61323 15.5234 8.61244 15.523C8.61155 15.5225 8.60952 15.5215 8.60728 15.5202M8.61143 15.5225C8.61049 15.5221 8.60907 15.5214 8.60705 15.5204L8.58266 15.5087C8.56144 15.4984 8.53103 15.4836 8.49216 15.464C8.41443 15.425 8.30317 15.3673 8.16364 15.2898C7.88461 15.1349 7.4926 14.9008 7.02957 14.5781C6.10369 13.9329 4.89285 12.9329 3.73386 11.5024M8.60728 15.5202C8.60727 15.5202 8.60726 15.5202 8.60725 15.5201L8.68243 15.3903M8.60728 15.5202L8.68243 15.3903M3.73386 11.5024L3.8504 11.4079M3.73386 11.5024C3.73386 11.5024 3.73385 11.5024 3.73385 11.5024L3.8504 11.4079M3.73386 11.5024C3.60019 11.3374 3.62558 11.0954 3.79053 10.9617L3.79054 10.9617C3.9554 10.8282 4.19748 10.8534 4.33117 11.0184L4.21462 11.1128L4.33117 11.0184C6.08372 13.1816 7.82151 14.178 8.61805 14.6347C8.68514 14.6731 8.74555 14.7078 8.79873 14.739C9.33203 14.4095 10.8889 13.4015 12.4266 11.9652C13.288 11.1606 14.2285 10.1382 14.9529 8.97851C15.6776 7.81835 16.1808 6.52921 16.1811 5.18803L3.8504 11.4079M3.8504 11.4079C6.05198 14.1253 8.44207 15.2746 8.66575 15.3822C8.67543 15.3868 8.68106 15.3896 8.68243 15.3903M9.09758 2.66587C9.85989 1.73207 10.9869 1.19687 12.1904 1.19687C14.3907 1.19687 16.181 2.98743 16.1811 5.188L9.09758 2.66587Z" fill="white" stroke="white" stroke-width="0.3"/>
</svg>
