<svg width="24" height="24" viewBox="0 0 24 24" fill="none" xmlns="http://www.w3.org/2000/svg">
<mask id="path-1-outside-1_91_3223" maskUnits="userSpaceOnUse" x="-0.145508" y="-0.145508" width="24" height="24" fill="black">
<rect fill="white" x="-0.145508" y="-0.145508" width="24" height="24"/>
<path d="M21.874 20.9813C21.8387 20.54 21.666 20.1209 21.3801 19.7828C21.0942 19.4448 20.7096 19.2049 20.2802 19.0969C20.2802 19.0804 20.2802 19.0639 20.2802 19.0476C20.2795 18.5183 20.0794 18.0087 19.7198 17.6204C19.3602 17.232 18.8675 16.9933 18.3398 16.9519C18.3229 16.8782 18.3023 16.8068 18.2779 16.7363C18.4828 15.1915 18.5921 13.6354 18.6053 12.0771V11.923C18.6053 7.98137 17.6783 3.51755 17.5887 3.09549V1.18262C17.5887 1.09559 17.5541 1.01213 17.4926 0.950598C17.431 0.889062 17.3476 0.854492 17.2606 0.854492H2.19924C2.15615 0.854468 2.11347 0.862938 2.07365 0.879419C2.03382 0.8959 1.99764 0.920069 1.96717 0.950543C1.93669 0.981017 1.91253 1.0172 1.89604 1.05702C1.87956 1.09684 1.87109 1.13952 1.87112 1.18262V3.09512C1.7813 3.51812 0.854492 7.98155 0.854492 11.923V12.0771C0.854492 16.0186 1.7813 20.482 1.87112 20.9046V22.8171C1.87109 22.8602 1.87956 22.9029 1.89604 22.9427C1.91253 22.9825 1.93669 23.0187 1.96717 23.0492C1.99764 23.0797 2.03382 23.1038 2.07365 23.1203C2.11347 23.1368 2.15615 23.1453 2.19924 23.1452H22.8175C22.8606 23.1453 22.9033 23.1368 22.9431 23.1203C22.9829 23.1038 23.0191 23.0797 23.0496 23.0492C23.08 23.0187 23.1042 22.9825 23.1207 22.9427C23.1372 22.9029 23.1456 22.8602 23.1456 22.8171C23.1475 22.4177 23.0265 22.0273 22.799 21.6989C22.5715 21.3705 22.2486 21.12 21.874 20.9813ZM2.52737 1.51074H16.9324V2.80205H2.52737V1.51074ZM1.51074 11.923C1.51074 8.41993 2.25793 4.4858 2.46699 3.4583H16.9934C17.2015 4.4858 17.9496 8.41993 17.9496 11.923V12.0771C17.9412 13.3365 17.8651 14.5946 17.7218 15.8459C17.4337 15.5634 17.0757 15.3626 16.6844 15.2642C16.2931 15.1658 15.8826 15.1733 15.4952 15.2859C15.1077 15.3985 14.7572 15.6122 14.4796 15.905C14.202 16.1978 14.0073 16.5592 13.9156 16.9521C13.3882 16.9941 12.896 17.2331 12.5369 17.6216C12.1778 18.01 11.978 18.5194 11.9774 19.0484C11.9774 19.0647 11.9774 19.0812 11.9774 19.0977C11.6223 19.1874 11.2965 19.3675 11.0318 19.6205C10.767 19.8736 10.5722 20.1908 10.4665 20.5414H2.46624C2.25793 19.5139 1.50999 15.5798 1.50999 12.0767L1.51074 11.923ZM2.52737 21.1981H9.96531C9.74722 21.346 9.56151 21.5368 9.41945 21.7588C9.2774 21.9808 9.18198 22.2293 9.13899 22.4894H2.52737V21.1981ZM13.4091 22.4894C13.4746 22.3249 13.5879 22.1839 13.7343 22.0845C13.8807 21.985 14.0536 21.9317 14.2306 21.9314C14.3176 21.9314 14.401 21.8968 14.4626 21.8353C14.5241 21.7737 14.5587 21.6903 14.5587 21.6032C14.5587 21.5162 14.5241 21.4328 14.4626 21.3712C14.401 21.3097 14.3176 21.2751 14.2306 21.2751C13.8787 21.2757 13.5376 21.3963 13.2637 21.6171C12.9897 21.8379 12.7994 22.1457 12.7242 22.4894H9.80856C9.86803 22.2576 9.99049 22.0469 10.1624 21.8804C10.3343 21.714 10.5489 21.5984 10.7824 21.5464C10.8577 21.5293 10.9245 21.4863 10.9712 21.4248C11.0179 21.3633 11.0414 21.2873 11.0376 21.2102L11.0354 21.1741C11.0354 21.1621 11.0335 21.1499 11.0335 21.1377C11.0352 20.7752 11.1724 20.4265 11.4182 20.16C11.6639 19.8936 12.0004 19.7287 12.3616 19.6977C12.4073 19.694 12.4518 19.6808 12.4921 19.6588C12.5324 19.6369 12.5677 19.6067 12.5956 19.5703C12.6236 19.5339 12.6436 19.492 12.6543 19.4474C12.665 19.4028 12.6663 19.3564 12.658 19.3112C12.6415 19.2247 12.633 19.1368 12.6327 19.0487C12.6331 18.6653 12.7856 18.2976 13.0568 18.0264C13.3279 17.7553 13.6956 17.6028 14.0791 17.6024C14.1012 17.6024 14.1229 17.6041 14.1447 17.6056L14.173 17.6074C14.258 17.6127 14.3417 17.5848 14.4065 17.5295C14.4712 17.4742 14.512 17.3959 14.5201 17.3112C14.5587 16.9117 14.7447 16.541 15.0418 16.2713C15.3389 16.0015 15.7258 15.8521 16.1271 15.8521C16.5284 15.8521 16.9153 16.0015 17.2124 16.2713C17.5095 16.541 17.6955 16.9117 17.7342 17.3112C17.7422 17.3962 17.783 17.4748 17.848 17.5301C17.9131 17.5854 17.9972 17.6132 18.0824 17.6074L18.1067 17.6057C18.1304 17.6041 18.154 17.6022 18.178 17.6022C18.3904 17.6013 18.6004 17.6474 18.793 17.7372C18.9855 17.827 19.1558 17.9583 19.2916 18.1217C19.4274 18.2851 19.5254 18.4764 19.5786 18.6821C19.6317 18.8878 19.6387 19.1027 19.5991 19.3114C19.5907 19.3566 19.592 19.4029 19.6027 19.4476C19.6134 19.4922 19.6334 19.5341 19.6613 19.5705C19.6892 19.6069 19.7245 19.6371 19.7648 19.659C19.8051 19.681 19.8496 19.6942 19.8953 19.6979C20.2565 19.7288 20.593 19.8938 20.8388 20.1602C21.0845 20.4267 21.2218 20.7754 21.2236 21.1379C21.2236 21.1499 21.2236 21.1615 21.2219 21.1733L21.2194 21.2108C21.2157 21.2879 21.2391 21.3638 21.2858 21.4253C21.3324 21.4868 21.3992 21.5299 21.4744 21.547C21.708 21.5989 21.9226 21.7145 22.0945 21.881C22.2664 22.0474 22.3889 22.2582 22.4483 22.4899L13.4091 22.4894Z"/>
</mask>
<path d="M21.874 20.9813C21.8387 20.54 21.666 20.1209 21.3801 19.7828C21.0942 19.4448 20.7096 19.2049 20.2802 19.0969C20.2802 19.0804 20.2802 19.0639 20.2802 19.0476C20.2795 18.5183 20.0794 18.0087 19.7198 17.6204C19.3602 17.232 18.8675 16.9933 18.3398 16.9519C18.3229 16.8782 18.3023 16.8068 18.2779 16.7363C18.4828 15.1915 18.5921 13.6354 18.6053 12.0771V11.923C18.6053 7.98137 17.6783 3.51755 17.5887 3.09549V1.18262C17.5887 1.09559 17.5541 1.01213 17.4926 0.950598C17.431 0.889062 17.3476 0.854492 17.2606 0.854492H2.19924C2.15615 0.854468 2.11347 0.862938 2.07365 0.879419C2.03382 0.8959 1.99764 0.920069 1.96717 0.950543C1.93669 0.981017 1.91253 1.0172 1.89604 1.05702C1.87956 1.09684 1.87109 1.13952 1.87112 1.18262V3.09512C1.7813 3.51812 0.854492 7.98155 0.854492 11.923V12.0771C0.854492 16.0186 1.7813 20.482 1.87112 20.9046V22.8171C1.87109 22.8602 1.87956 22.9029 1.89604 22.9427C1.91253 22.9825 1.93669 23.0187 1.96717 23.0492C1.99764 23.0797 2.03382 23.1038 2.07365 23.1203C2.11347 23.1368 2.15615 23.1453 2.19924 23.1452H22.8175C22.8606 23.1453 22.9033 23.1368 22.9431 23.1203C22.9829 23.1038 23.0191 23.0797 23.0496 23.0492C23.08 23.0187 23.1042 22.9825 23.1207 22.9427C23.1372 22.9029 23.1456 22.8602 23.1456 22.8171C23.1475 22.4177 23.0265 22.0273 22.799 21.6989C22.5715 21.3705 22.2486 21.12 21.874 20.9813ZM2.52737 1.51074H16.9324V2.80205H2.52737V1.51074ZM1.51074 11.923C1.51074 8.41993 2.25793 4.4858 2.46699 3.4583H16.9934C17.2015 4.4858 17.9496 8.41993 17.9496 11.923V12.0771C17.9412 13.3365 17.8651 14.5946 17.7218 15.8459C17.4337 15.5634 17.0757 15.3626 16.6844 15.2642C16.2931 15.1658 15.8826 15.1733 15.4952 15.2859C15.1077 15.3985 14.7572 15.6122 14.4796 15.905C14.202 16.1978 14.0073 16.5592 13.9156 16.9521C13.3882 16.9941 12.896 17.2331 12.5369 17.6216C12.1778 18.01 11.978 18.5194 11.9774 19.0484C11.9774 19.0647 11.9774 19.0812 11.9774 19.0977C11.6223 19.1874 11.2965 19.3675 11.0318 19.6205C10.767 19.8736 10.5722 20.1908 10.4665 20.5414H2.46624C2.25793 19.5139 1.50999 15.5798 1.50999 12.0767L1.51074 11.923ZM2.52737 21.1981H9.96531C9.74722 21.346 9.56151 21.5368 9.41945 21.7588C9.2774 21.9808 9.18198 22.2293 9.13899 22.4894H2.52737V21.1981ZM13.4091 22.4894C13.4746 22.3249 13.5879 22.1839 13.7343 22.0845C13.8807 21.985 14.0536 21.9317 14.2306 21.9314C14.3176 21.9314 14.401 21.8968 14.4626 21.8353C14.5241 21.7737 14.5587 21.6903 14.5587 21.6032C14.5587 21.5162 14.5241 21.4328 14.4626 21.3712C14.401 21.3097 14.3176 21.2751 14.2306 21.2751C13.8787 21.2757 13.5376 21.3963 13.2637 21.6171C12.9897 21.8379 12.7994 22.1457 12.7242 22.4894H9.80856C9.86803 22.2576 9.99049 22.0469 10.1624 21.8804C10.3343 21.714 10.5489 21.5984 10.7824 21.5464C10.8577 21.5293 10.9245 21.4863 10.9712 21.4248C11.0179 21.3633 11.0414 21.2873 11.0376 21.2102L11.0354 21.1741C11.0354 21.1621 11.0335 21.1499 11.0335 21.1377C11.0352 20.7752 11.1724 20.4265 11.4182 20.16C11.6639 19.8936 12.0004 19.7287 12.3616 19.6977C12.4073 19.694 12.4518 19.6808 12.4921 19.6588C12.5324 19.6369 12.5677 19.6067 12.5956 19.5703C12.6236 19.5339 12.6436 19.492 12.6543 19.4474C12.665 19.4028 12.6663 19.3564 12.658 19.3112C12.6415 19.2247 12.633 19.1368 12.6327 19.0487C12.6331 18.6653 12.7856 18.2976 13.0568 18.0264C13.3279 17.7553 13.6956 17.6028 14.0791 17.6024C14.1012 17.6024 14.1229 17.6041 14.1447 17.6056L14.173 17.6074C14.258 17.6127 14.3417 17.5848 14.4065 17.5295C14.4712 17.4742 14.512 17.3959 14.5201 17.3112C14.5587 16.9117 14.7447 16.541 15.0418 16.2713C15.3389 16.0015 15.7258 15.8521 16.1271 15.8521C16.5284 15.8521 16.9153 16.0015 17.2124 16.2713C17.5095 16.541 17.6955 16.9117 17.7342 17.3112C17.7422 17.3962 17.783 17.4748 17.848 17.5301C17.9131 17.5854 17.9972 17.6132 18.0824 17.6074L18.1067 17.6057C18.1304 17.6041 18.154 17.6022 18.178 17.6022C18.3904 17.6013 18.6004 17.6474 18.793 17.7372C18.9855 17.827 19.1558 17.9583 19.2916 18.1217C19.4274 18.2851 19.5254 18.4764 19.5786 18.6821C19.6317 18.8878 19.6387 19.1027 19.5991 19.3114C19.5907 19.3566 19.592 19.4029 19.6027 19.4476C19.6134 19.4922 19.6334 19.5341 19.6613 19.5705C19.6892 19.6069 19.7245 19.6371 19.7648 19.659C19.8051 19.681 19.8496 19.6942 19.8953 19.6979C20.2565 19.7288 20.593 19.8938 20.8388 20.1602C21.0845 20.4267 21.2218 20.7754 21.2236 21.1379C21.2236 21.1499 21.2236 21.1615 21.2219 21.1733L21.2194 21.2108C21.2157 21.2879 21.2391 21.3638 21.2858 21.4253C21.3324 21.4868 21.3992 21.5299 21.4744 21.547C21.708 21.5989 21.9226 21.7145 22.0945 21.881C22.2664 22.0474 22.3889 22.2582 22.4483 22.4899L13.4091 22.4894Z" fill="#84BE51"/>
<path d="M21.874 20.9813C21.8387 20.54 21.666 20.1209 21.3801 19.7828C21.0942 19.4448 20.7096 19.2049 20.2802 19.0969C20.2802 19.0804 20.2802 19.0639 20.2802 19.0476C20.2795 18.5183 20.0794 18.0087 19.7198 17.6204C19.3602 17.232 18.8675 16.9933 18.3398 16.9519C18.3229 16.8782 18.3023 16.8068 18.2779 16.7363C18.4828 15.1915 18.5921 13.6354 18.6053 12.0771V11.923C18.6053 7.98137 17.6783 3.51755 17.5887 3.09549V1.18262C17.5887 1.09559 17.5541 1.01213 17.4926 0.950598C17.431 0.889062 17.3476 0.854492 17.2606 0.854492H2.19924C2.15615 0.854468 2.11347 0.862938 2.07365 0.879419C2.03382 0.8959 1.99764 0.920069 1.96717 0.950543C1.93669 0.981017 1.91253 1.0172 1.89604 1.05702C1.87956 1.09684 1.87109 1.13952 1.87112 1.18262V3.09512C1.7813 3.51812 0.854492 7.98155 0.854492 11.923V12.0771C0.854492 16.0186 1.7813 20.482 1.87112 20.9046V22.8171C1.87109 22.8602 1.87956 22.9029 1.89604 22.9427C1.91253 22.9825 1.93669 23.0187 1.96717 23.0492C1.99764 23.0797 2.03382 23.1038 2.07365 23.1203C2.11347 23.1368 2.15615 23.1453 2.19924 23.1452H22.8175C22.8606 23.1453 22.9033 23.1368 22.9431 23.1203C22.9829 23.1038 23.0191 23.0797 23.0496 23.0492C23.08 23.0187 23.1042 22.9825 23.1207 22.9427C23.1372 22.9029 23.1456 22.8602 23.1456 22.8171C23.1475 22.4177 23.0265 22.0273 22.799 21.6989C22.5715 21.3705 22.2486 21.12 21.874 20.9813ZM2.52737 1.51074H16.9324V2.80205H2.52737V1.51074ZM1.51074 11.923C1.51074 8.41993 2.25793 4.4858 2.46699 3.4583H16.9934C17.2015 4.4858 17.9496 8.41993 17.9496 11.923V12.0771C17.9412 13.3365 17.8651 14.5946 17.7218 15.8459C17.4337 15.5634 17.0757 15.3626 16.6844 15.2642C16.2931 15.1658 15.8826 15.1733 15.4952 15.2859C15.1077 15.3985 14.7572 15.6122 14.4796 15.905C14.202 16.1978 14.0073 16.5592 13.9156 16.9521C13.3882 16.9941 12.896 17.2331 12.5369 17.6216C12.1778 18.01 11.978 18.5194 11.9774 19.0484C11.9774 19.0647 11.9774 19.0812 11.9774 19.0977C11.6223 19.1874 11.2965 19.3675 11.0318 19.6205C10.767 19.8736 10.5722 20.1908 10.4665 20.5414H2.46624C2.25793 19.5139 1.50999 15.5798 1.50999 12.0767L1.51074 11.923ZM2.52737 21.1981H9.96531C9.74722 21.346 9.56151 21.5368 9.41945 21.7588C9.2774 21.9808 9.18198 22.2293 9.13899 22.4894H2.52737V21.1981ZM13.4091 22.4894C13.4746 22.3249 13.5879 22.1839 13.7343 22.0845C13.8807 21.985 14.0536 21.9317 14.2306 21.9314C14.3176 21.9314 14.401 21.8968 14.4626 21.8353C14.5241 21.7737 14.5587 21.6903 14.5587 21.6032C14.5587 21.5162 14.5241 21.4328 14.4626 21.3712C14.401 21.3097 14.3176 21.2751 14.2306 21.2751C13.8787 21.2757 13.5376 21.3963 13.2637 21.6171C12.9897 21.8379 12.7994 22.1457 12.7242 22.4894H9.80856C9.86803 22.2576 9.99049 22.0469 10.1624 21.8804C10.3343 21.714 10.5489 21.5984 10.7824 21.5464C10.8577 21.5293 10.9245 21.4863 10.9712 21.4248C11.0179 21.3633 11.0414 21.2873 11.0376 21.2102L11.0354 21.1741C11.0354 21.1621 11.0335 21.1499 11.0335 21.1377C11.0352 20.7752 11.1724 20.4265 11.4182 20.16C11.6639 19.8936 12.0004 19.7287 12.3616 19.6977C12.4073 19.694 12.4518 19.6808 12.4921 19.6588C12.5324 19.6369 12.5677 19.6067 12.5956 19.5703C12.6236 19.5339 12.6436 19.492 12.6543 19.4474C12.665 19.4028 12.6663 19.3564 12.658 19.3112C12.6415 19.2247 12.633 19.1368 12.6327 19.0487C12.6331 18.6653 12.7856 18.2976 13.0568 18.0264C13.3279 17.7553 13.6956 17.6028 14.0791 17.6024C14.1012 17.6024 14.1229 17.6041 14.1447 17.6056L14.173 17.6074C14.258 17.6127 14.3417 17.5848 14.4065 17.5295C14.4712 17.4742 14.512 17.3959 14.5201 17.3112C14.5587 16.9117 14.7447 16.541 15.0418 16.2713C15.3389 16.0015 15.7258 15.8521 16.1271 15.8521C16.5284 15.8521 16.9153 16.0015 17.2124 16.2713C17.5095 16.541 17.6955 16.9117 17.7342 17.3112C17.7422 17.3962 17.783 17.4748 17.848 17.5301C17.9131 17.5854 17.9972 17.6132 18.0824 17.6074L18.1067 17.6057C18.1304 17.6041 18.154 17.6022 18.178 17.6022C18.3904 17.6013 18.6004 17.6474 18.793 17.7372C18.9855 17.827 19.1558 17.9583 19.2916 18.1217C19.4274 18.2851 19.5254 18.4764 19.5786 18.6821C19.6317 18.8878 19.6387 19.1027 19.5991 19.3114C19.5907 19.3566 19.592 19.4029 19.6027 19.4476C19.6134 19.4922 19.6334 19.5341 19.6613 19.5705C19.6892 19.6069 19.7245 19.6371 19.7648 19.659C19.8051 19.681 19.8496 19.6942 19.8953 19.6979C20.2565 19.7288 20.593 19.8938 20.8388 20.1602C21.0845 20.4267 21.2218 20.7754 21.2236 21.1379C21.2236 21.1499 21.2236 21.1615 21.2219 21.1733L21.2194 21.2108C21.2157 21.2879 21.2391 21.3638 21.2858 21.4253C21.3324 21.4868 21.3992 21.5299 21.4744 21.547C21.708 21.5989 21.9226 21.7145 22.0945 21.881C22.2664 22.0474 22.3889 22.2582 22.4483 22.4899L13.4091 22.4894Z" stroke="#84BE51" stroke-width="0.4" mask="url(#path-1-outside-1_91_3223)"/>
</svg>
